<svg id="Capa_1" enable-background="new 0 0 512 512" height="512" viewBox="0 0 512 512" width="512" xmlns="http://www.w3.org/2000/svg"><g><g><path d="m330.774 163.853c-3.61-15.336-13.275-27.661-25.864-35.061-1.538-.904-2.118-2.833-1.297-4.416 3.184-6.146 4.275-13.415 2.564-20.682-3.167-13.451-14.916-22.638-28.086-23.137-2.274-.086-3.876-2.329-3.069-4.458 2.328-6.142 2.676-13.12.443-19.981-4.376-13.446-17.845-22.104-31.893-20.487-3.218.371-6.231 1.223-8.992 2.466-1.53.688-3.33.148-4.21-1.28-6.786-11.011-20.258-16.837-33.534-13.201-14.76 4.042-24.233 18.87-21.665 33.956.97 5.698 3.452 10.708 6.946 14.721 1.783 2.048.585 5.226-2.111 5.541-1.135.133-2.275.332-3.414.6-13.03 3.067-22.055 14.188-23.061 26.852-.158 1.991-2.09 3.36-4.039 2.923-7.911-1.774-16.333-1.839-24.755.144-16.643 3.918-29.74 14.964-36.843 29.141-.846 1.689-2.887 2.363-4.553 1.471-6.225-3.336-13.643-4.504-21.058-2.759-16.15 3.802-26.16 19.977-22.358 36.127.003.014.007.028.01.042.478 2.015-.884 3.95-2.943 4.176-2.546.28-5.114.892-7.658 1.878-12.891 4.994-20.769 18.441-18.821 32.128 1.795 12.612 27.287 142.792 27.287 142.792h293.06c0 .003 1.922-180.966-.086-189.496z" fill="#ccf49f"/></g><g><path d="m330.774 163.853c-3.61-15.336-13.275-27.661-25.864-35.061-1.538-.904-2.118-2.833-1.297-4.416 3.184-6.146 4.275-13.415 2.564-20.682-3.167-13.451-14.916-22.638-28.086-23.137-2.274-.086-3.876-2.329-3.069-4.458 2.328-6.142 2.676-13.12.443-19.981-4.376-13.446-17.846-22.104-31.893-20.487-3.218.371-6.231 1.223-8.992 2.466-1.53.688-3.33.148-4.21-1.28-6.786-11.011-20.258-16.837-33.534-13.201-7.614 2.085-13.814 7.044-17.687 13.423 6.945 2.113 12.996 6.696 16.867 12.978.88 1.428 2.68 1.968 4.21 1.28 2.761-1.243 5.774-2.095 8.992-2.466 14.048-1.617 27.517 7.04 31.893 20.487 2.233 6.861 1.885 13.839-.443 19.981-.807 2.128.795 4.372 3.069 4.458 13.17.499 24.92 9.685 28.086 23.137 1.711 7.267.62 14.535-2.564 20.682-.821 1.584-.24 3.512 1.297 4.416 12.589 7.4 22.253 19.725 25.864 35.061.647 2.747.885 23.377.913 50.082 10.83 6.426 18.093 18.23 18.093 31.736 0 13.59-7.355 25.455-18.297 31.853-.154 25.291-.36 48.7-.492 62.628h34.223s1.922-180.969-.086-189.499z" fill="#b3e59f"/></g><g><path d="m270.998 143.274c-20.328 20.328-48.856 27.064-64.119 29.276-5.586.809-10.371-3.976-9.562-9.562 2.212-15.263 8.948-43.791 29.276-64.119s48.856-27.064 64.119-29.276c5.586-.809 10.371 3.976 9.562 9.562-2.212 15.264-8.948 43.791-29.276 64.119z" fill="#b3e59f"/></g><path d="m206.879 172.55c15.263-2.211 43.791-8.948 64.119-29.276s27.064-48.856 29.276-64.119c.405-2.793-.589-5.386-2.383-7.179l-98.191 98.192c1.793 1.793 4.386 2.787 7.179 2.382z" fill="#95d6a4"/><path d="m290.712 69.594c-6.994 1.013-16.774 2.982-27.273 6.768-3.33 15.896-10.835 38.408-27.706 55.278-11.014 11.014-24.432 18.032-36.846 22.508-.682 3.258-1.194 6.244-1.57 8.84-.809 5.586 3.976 10.371 9.562 9.562 15.263-2.212 43.791-8.948 64.119-29.276s27.064-48.856 29.276-64.119c.809-5.585-3.976-10.37-9.562-9.561z" fill="#95d6a4"/><path d="m206.879 172.55c15.263-2.211 43.791-8.948 64.119-29.276s27.064-48.856 29.276-64.119c.405-2.793-.589-5.386-2.383-7.179l-98.191 98.192c1.793 1.793 4.386 2.787 7.179 2.382z" fill="#78c2a4"/><g><path d="m391.565 155.132c0 32.103-16.65 144.609-37.189 144.609s-37.189-112.505-37.189-144.609c0-32.103 16.65-41.002 37.189-41.002s37.189 8.899 37.189 41.002z" fill="#ecb780"/></g><g><path d="m354.376 114.13c-5.133 0-10.022.556-14.47 1.891 13.35 4.006 22.718 15.031 22.718 39.111 0 24.081-9.368 93.399-22.718 126.541 4.448 11.042 9.338 18.068 14.47 18.068 20.539 0 37.189-112.505 37.189-144.609 0-32.103-16.65-41.002-37.189-41.002z" fill="#e49542"/></g><g><path d="m112.411 104.587c-7.47 7.47-11.472 17.092-12.019 26.871-9.779.546-19.4 4.548-26.871 12.019-16.12 16.12-16.12 42.256 0 58.376s74.095 47.959 90.215 31.839c7.47-7.47 11.472-17.092 12.019-26.871 9.779-.547 19.4-4.548 26.871-12.019 16.12-16.12-15.719-74.095-31.839-90.215s-42.256-16.12-58.376 0z" fill="#dd636e"/></g><g><g><path d="m170.787 104.587c-16.12-16.12-42.256-16.12-58.376 0-3.921 3.921-6.876 8.437-8.888 13.255 14.987-6.259 32.915-3.298 45.111 8.898 13.335 13.335 37.425 55.31 36.227 78.542 6.505-1.865 12.641-5.356 17.765-10.48 16.12-16.12-15.719-74.095-31.839-90.215z" fill="#da4a54"/></g></g><g><path d="m455.687 170.025c-22.7 22.7-114.027 90.48-128.55 75.957s53.257-105.85 75.958-128.55c22.7-22.7 40.766-17.22 55.289-2.697s20.004 32.59-2.697 55.29z" fill="#ecb780"/></g><g><path d="m458.384 114.736c-3.629-3.629-7.48-6.694-11.569-8.895 6.607 12.273 5.436 26.693-11.592 43.72-17.028 17.028-72.667 59.419-105.542 73.414-4.662 10.953-6.173 19.379-2.544 23.008 14.523 14.523 105.85-53.257 128.55-75.957 22.701-22.701 17.22-40.767 2.697-55.29z" fill="#e49542"/></g><g><circle cx="446.783" cy="202.282" fill="#ccf49f" r="36.882"/></g><g><path d="m446.783 165.4c-3.554 0-6.987.513-10.239 1.451 15.386 4.439 26.643 18.616 26.643 35.431s-11.257 30.992-26.643 35.431c3.252.938 6.685 1.451 10.239 1.451 20.369 0 36.882-16.513 36.882-36.882s-16.513-36.882-36.882-36.882z" fill="#b3e59f"/></g><g><circle cx="223.21" cy="225.76" fill="#e4989d" r="69.39"/></g><g><path d="m234.071 157.222c13.137 12.626 21.327 30.362 21.327 50.022 0 38.323-31.067 69.39-69.39 69.39-3.696 0-7.322-.296-10.861-.852 12.471 11.986 29.4 19.368 48.063 19.368 38.323 0 69.39-31.067 69.39-69.39 0-34.628-25.366-63.324-58.529-68.538z" fill="#e28086"/></g><g><path d="m494.447 207.117h-477.279c-5.418 0-9.811 4.392-9.811 9.811v105.129c0 5.523 4.477 10 10 10h476.9c5.523 0 10-4.477 10-10v-105.129c.001-5.418-4.392-9.811-9.81-9.811zm-167.345 62.47c0 10.776-8.736 19.512-19.512 19.512h-103.564c-10.776 0-19.512-8.736-19.512-19.512 0-10.776 8.736-19.513 19.512-19.513h103.563c10.777 0 19.513 8.737 19.513 19.513z" fill="#aa8080"/></g><g><path d="m494.258 456.996h-476.9c-5.523 0-10-4.477-10-10v-104.94c0-5.523 4.477-10 10-10h476.9c5.523 0 10 4.477 10 10v104.94c0 5.523-4.477 10-10 10z" fill="#aa8080"/></g><g><path d="m494.447 207.117h-27.714v77.604c0 5.418-4.392 9.811-9.811 9.811h-449.564v27.525c0 5.523 4.477 10 10 10h476.9c5.523 0 10-4.477 10-10v-105.129c0-5.418-4.393-9.811-9.811-9.811z" fill="#9d6b6b"/></g><g><path d="m494.447 332.057h-27.714v77.604c0 5.418-4.392 9.811-9.811 9.811h-449.564v27.525c0 5.523 4.477 10 10 10h476.9c5.523 0 10-4.477 10-10v-105.13c0-5.418-4.393-9.81-9.811-9.81z" fill="#9d6b6b"/></g><g><path d="m397.395 489.435h-283.182c-4.028 0-6.866-3.955-5.577-7.771l16.859-49.897c1.362-4.032 1.377-8.397.042-12.437l-16.971-51.357c-1.259-3.809 1.578-7.733 5.589-7.733h283.304c4.078 0 6.921 4.046 5.538 7.883l-18.278 50.704c-1.567 4.346-1.55 9.105.048 13.44l18.152 49.245c1.416 3.844-1.428 7.923-5.524 7.923z" fill="#b3e59f"/></g><g><path d="m384.767 432.267c-1.598-4.335-1.615-9.094-.048-13.44l18.278-50.704c1.383-3.836-1.46-7.883-5.538-7.883h-28.647c4.078 0 6.92 4.046 5.537 7.883l-18.278 50.704c-1.567 4.346-1.55 9.105.048 13.44l18.152 49.245c1.417 3.843-1.427 7.922-5.523 7.922h28.647c4.096 0 6.94-4.079 5.523-7.922z" fill="#95d6a4"/></g><g><path d="m204.026 296.457h103.563c14.816 0 26.87-12.054 26.87-26.87s-12.053-26.87-26.87-26.87h-103.563c-14.817 0-26.87 12.054-26.87 26.87s12.054 26.87 26.87 26.87zm89.085-39.025h14.479c6.702 0 12.154 5.452 12.154 12.154s-5.452 12.155-12.154 12.155h-31.951c7.318-6.866 13.296-15.133 17.472-24.309zm-89.085 0h72.498c-6.251 10.461-15.542 19.017-26.6 24.309h-45.898c-6.702 0-12.154-5.452-12.154-12.155s5.452-12.154 12.154-12.154z"/><path d="m494.447 199.759h-3.501c-.84-14.87-9.055-27.796-21.039-35.174 10.054-14.466 11.131-28.986 3.255-42.777l35.086-19.737c3.542-1.992 4.798-6.478 2.806-10.02-1.993-3.542-6.481-4.799-10.02-2.805l-15.438 8.684 10.658-10.658c2.873-2.873 2.873-7.532 0-10.406-2.874-2.873-7.532-2.873-10.407 0l-10.056 10.056 8.287-14.589c2.007-3.533.769-8.025-2.764-10.032-3.531-2.007-8.025-.77-10.032 2.763l-19.853 34.948c-17.212-9.918-35.487-5.834-53.537 12.216-2.345 2.345-5.2 5.455-8.402 9.142-4.797-6.216-11.366-10.458-19.66-12.699l10.85-38.756c1.095-3.913-1.189-7.974-5.102-9.069-3.918-1.096-7.974 1.189-9.07 5.102l-4.775 17.055v-15.071c0-4.064-3.294-7.358-7.358-7.358s-7.358 3.294-7.358 7.358v14.224l-4.456-16.178c-1.079-3.918-5.131-6.218-9.047-5.14-3.918 1.079-6.22 5.13-5.14 9.048l10.673 38.75c-10.755 2.891-18.629 9.136-23.475 18.562-1.26-.987-2.544-1.945-3.878-2.835 2.81-7.079 3.402-14.888 1.643-22.357-1.252-5.317-3.666-10.292-7.019-14.554.515-2.632.922-5.07 1.236-7.242.721-4.982-.904-9.88-4.462-13.437-3.557-3.558-8.461-5.183-13.437-4.462-1.664.241-3.486.537-5.427.892-.196-3.16-.774-6.307-1.769-9.363-5.47-16.808-22.181-27.532-39.732-25.52-2.749.317-5.434.925-8.018 1.816-9.107-12.106-24.997-17.675-39.819-13.618-18.31 5.015-30.158 23.589-26.974 42.288.792 4.644 2.432 9.063 4.819 13.043-8.213 2.454-15.24 7.596-20.047 14.592-15.833-3.682-33.165.626-45.481 12.941-3.011 3.011-5.585 6.376-7.685 9.998-5.179-1.212-10.117 3.962-8.597 9.103l1.185 4.424-4.423-1.186c-4.759-1.37-9.658 2.68-9.241 7.591-5.616-.931-13.137-1.378-17.851-.269-9.724 2.289-17.974 8.228-23.232 16.723-4.523 7.309-6.364 15.757-5.333 24.167-1.815.411-3.607.957-5.356 1.634-14.374 5.568-23.474 18.563-23.776 35.828-1.828 2.731-2.898 6.009-2.898 9.533v39.133c0 4.064 3.294 7.358 7.358 7.358s7.358-3.294 7.358-7.358v-39.133c0-1.352 1.1-2.453 2.453-2.453h477.278c1.353 0 2.453 1.1 2.453 2.453v105.318c0 1.352-1.1 2.453-2.453 2.453h-306.024c-4.064 0-7.358 3.294-7.358 7.358s3.294 7.358 7.358 7.358h306.024c1.353 0 2.453 1.1 2.453 2.453v105.318c0 1.352-1.1 2.453-2.453 2.453h-22.96c-4.064 0-7.358 3.294-7.358 7.358s3.294 7.358 7.358 7.358h22.96c9.467 0 17.169-7.702 17.169-17.169v-105.319c0-3.648-1.152-7.027-3.099-9.811 1.947-2.784 3.099-6.163 3.099-9.811v-105.317c-.001-9.467-7.702-17.169-17.169-17.169zm-432.124 0h-43.743c1.999-6.505 6.863-11.931 13.41-14.467 1.883-.729 3.835-1.209 5.805-1.425 6.299-.551 10.901-7.107 9.291-13.218-1.389-5.898-.398-11.983 2.791-17.135 3.172-5.125 8.142-8.712 13.999-10.116-12.486 16.543-13.006 39.301-1.553 56.361zm217.866-120.687-71.334 71.334c-.543.104-1.092.19-1.632.306 3.465-13.919 10.481-32.546 24.574-46.64 14.512-14.513 33.769-21.574 48.392-25zm10.606 10.607c-3.426 14.623-10.486 33.878-25 48.392-5.524 5.525-12.188 10.373-19.796 14.442-4.823-1.511-9.829-2.548-14.955-3.082zm-112.517-4.083c.85-.2 1.719-.353 2.58-.454 8.35-.703 12.506-11.552 6.809-17.68-2.723-3.128-4.536-6.975-5.243-11.125-1.929-11.329 5.255-22.584 16.354-25.624 9.667-2.65 20.08 1.451 25.326 9.962 2.805 4.555 8.607 6.33 13.493 4.131 2.142-.964 4.435-1.592 6.814-1.866 10.629-1.219 20.743 5.276 24.055 15.455.876 2.691 1.235 5.489 1.096 8.258-15.358 4.442-33.638 12.479-48.173 27.013-11.33 11.33-18.677 24.94-23.443 37.474-7.357-13.606-15.753-25.553-21.957-31.757-2.804-2.804-5.872-5.182-9.119-7.156 3.024-3.257 6.961-5.583 11.408-6.631zm-96.263 114.163c-15.947-12.685-17.868-36.632-3.292-51.079 4.879-4.878 11.083-8.114 17.793-9.356l4.096 1.098c5.234 1.59 10.607-3.754 9.012-9.012l-1.221-4.558c1.336-6.43 4.511-12.362 9.212-17.063 13.225-13.224 34.744-13.225 47.969 0 7.918 7.918 20.069 27.1 27.539 45.414-19.28 8.262-34.811 24.245-42.128 44.556zm84.866 0c10.006-21.615 31.954-36.031 56.329-36.031 24.373 0 46.323 14.418 56.328 36.031zm128.543 0c-6.13-17.015-18.025-30.992-33.063-39.938 5.079-3.432 9.716-7.22 13.84-11.344 11.239-11.239 18.588-24.717 23.4-37.352-.083 3.414-.928 6.792-2.52 9.864-2.615 5.044-.813 11.257 4.1 14.146 3.509 2.062 6.715 4.573 9.587 7.433-.617 3.887-.939 8.07-.939 12.564 0 9.914 1.501 26.604 3.976 44.627zm33.239 0c-2.555-18.151-4.117-34.964-4.117-44.627 0-29.647 15.079-33.644 29.83-33.644 15.742 0 22.154 5.988 25.317 11.635-15.036 18.67-33.626 44.387-46.415 66.636zm73.956 0h-52.241c18.497-30.336 45.532-64.736 57.921-77.123 20.961-20.962 34.453-13.127 44.883-2.696 13.115 13.115 13.93 24.862 2.585 39.021-2.901-.601-5.906-.918-8.983-.918-23.548-.001-42.852 18.492-44.165 41.716zm14.755 0c1.285-15.102 13.98-27.001 29.41-27.001 15.429 0 28.123 11.899 29.409 27.001z"/><path d="m436.544 449.638h-37.533l-7.341-19.915c-.996-2.706-1.007-5.689-.03-8.401l18.278-50.704c1.461-4.054.856-8.579-1.621-12.105-2.478-3.526-6.529-5.631-10.839-5.631h-283.302c-4.239 0-8.252 2.051-10.735 5.487-2.482 3.435-3.17 7.889-1.84 11.913l16.97 51.356c.83 2.51.82 5.271-.026 7.774l-6.834 20.226h-94.522c-1.353 0-2.453-1.1-2.453-2.453v-105.318c0-1.352 1.1-2.453 2.453-2.453h135.224c4.064 0 7.358-3.294 7.358-7.358s-3.294-7.358-7.358-7.358h-135.224c-1.353 0-2.453-1.1-2.453-2.453v-32.165c0-4.064-3.294-7.358-7.358-7.358s-7.358 3.294-7.358 7.358v32.166c0 3.644 1.15 7.02 3.094 9.803-1.949 2.784-3.094 6.17-3.094 9.818v105.318c0 9.467 7.702 17.169 17.169 17.169h89.55l-5.053 14.956c-1.362 4.032-.694 8.504 1.789 11.961 2.481 3.457 6.503 5.521 10.759 5.521h283.183c4.328 0 8.39-2.12 10.864-5.67 2.475-3.551 3.059-8.095 1.562-12.155l-5.386-14.613h32.109c4.064 0 7.358-3.294 7.358-7.358s-3.296-7.358-7.36-7.358zm-320.281 32.439 16.203-47.954c1.86-5.507 1.882-11.58.057-17.102l-16.332-49.423h279.173l-17.568 48.734c-2.15 5.965-2.127 12.528.066 18.48l17.422 47.265z"/><path d="m244.248 386.702c-4.064 0-7.358 3.294-7.358 7.358v63.685c0 4.064 3.294 7.358 7.358 7.358s7.358-3.294 7.358-7.358v-63.685c0-4.063-3.294-7.358-7.358-7.358z"/><path d="m206.18 421.126c2.424-3.536 3.845-7.811 3.845-12.412 0-12.137-9.875-22.012-22.012-22.012h-18.499c-4.064 0-7.358 3.294-7.358 7.358v63.685c-.078 3.965 3.426 7.454 7.39 7.358 0 0 17.009-.076 21.698-.076 13.509 0 24.5-10.99 24.5-24.5 0-7.89-3.753-14.917-9.564-19.401zm-29.307-19.708h11.141c4.023 0 7.296 3.273 7.296 7.296s-3.273 7.296-7.296 7.296c-1.357 0-11.141.017-11.141.017zm14.372 48.893c-2.636 0-9.152.024-14.372.045v-19.596c1.45-.006 14.372-.017 14.372-.017 5.395 0 9.784 4.389 9.784 9.784s-4.39 9.784-9.784 9.784z"/><path d="m310.386 384.185c-21.615 0-39.2 17.585-39.2 39.2s17.585 39.2 39.2 39.2 39.2-17.585 39.2-39.2-17.585-39.2-39.2-39.2zm0 63.685c-13.501 0-24.484-10.984-24.484-24.484s10.983-24.484 24.484-24.484 24.484 10.984 24.484 24.484-10.983 24.484-24.484 24.484z"/></g></g></svg>