<svg id="Capa_1" enable-background="new 0 0 512 512" height="140" viewBox="0 0 512 512" width="140" xmlns="http://www.w3.org/2000/svg">
    <g>
        <g><path d="m123.516 176.523s8.007 182.549-59.513 309.274c-8.731 16.387 10.5 33.456 25.839 22.991 72.71-49.605 176.118-151.865 176.118-332.265 0-39.335-31.887-71.222-71.222-71.222s-71.222 31.887-71.222 71.222z" fill="#dd636e"/><path d="m194.738 105.301c-7.891 0-15.473 1.302-22.567 3.672 28.269 9.441 48.655 36.106 48.655 67.55 0 166.532-88.118 266.472-158.864 319.876 1.576 11.957 15.912 20.554 27.88 12.389 72.71-49.605 176.118-151.865 176.118-332.265 0-39.335-31.887-71.222-71.222-71.222z" fill="#da4a54"/><path d="m257.332 126.06c-13.015-14.711-28.587-22.196-41.984-25.734v-35.163c0-10.061 3.997-19.711 11.111-26.825l2.129-2.129c8.283-8.283 8.283-21.713 0-29.996-8.283-8.283-21.713-8.283-29.996 0l-2.129 2.129c-15.07 15.07-23.536 35.508-23.536 56.82v35.358c-13.242 3.615-28.184 11.095-40.853 25.567-3.855 4.403-.694 11.28 5.156 11.126l19.536-.514c5.796-.153 11.422 1.962 15.682 5.895l7.194 6.641c8.526 7.87 21.667 7.87 30.193 0l7.194-6.641c4.26-3.932 9.886-6.047 15.682-5.895l19.487.513c5.866.153 9.022-6.757 5.134-11.152z" fill="#ccf49f"/><path d="m257.332 126.06c-12.923-14.607-28.364-22.085-41.697-25.654-6.159 11.007-14.228 22.232-24.009 32.933-4.584 5.015-9.317 9.658-14.123 13.919l2.139 1.975c8.526 7.87 21.667 7.87 30.193 0l7.194-6.641c4.26-3.932 9.886-6.047 15.682-5.895l19.487.513c5.866.155 9.022-6.755 5.134-11.15z" fill="#b3e59f"/></g>
        <g><path d="m307.739 176.523s8.007 182.549-59.513 309.274c-8.731 16.387 10.5 33.456 25.839 22.991 72.71-49.605 176.118-151.865 176.118-332.265 0-39.335-31.887-71.222-71.222-71.222s-71.222 31.887-71.222 71.222z" fill="#e49542"/><path d="m378.961 105.301c-7.891 0-15.473 1.302-22.567 3.672 28.269 9.441 48.655 36.106 48.655 67.55 0 166.532-88.118 266.472-158.864 319.876 1.576 11.957 15.912 20.554 27.88 12.389 72.71-49.605 176.118-151.865 176.118-332.265-.001-39.335-31.888-71.222-71.222-71.222z" fill="#e27d47"/><path d="m441.554 126.06c-13.015-14.711-28.587-22.196-41.984-25.734v-35.163c0-10.061 3.997-19.711 11.111-26.825l2.129-2.129c8.283-8.283 8.283-21.713 0-29.996-8.283-8.283-21.713-8.283-29.996 0l-2.129 2.129c-15.07 15.07-23.536 35.508-23.536 56.82v35.358c-13.242 3.615-28.184 11.095-40.853 25.567-3.855 4.403-.694 11.28 5.156 11.126l19.536-.514c5.796-.153 11.422 1.962 15.682 5.895l7.194 6.641c8.526 7.87 21.667 7.87 30.193 0l7.194-6.641c4.26-3.932 9.886-6.047 15.682-5.895l19.487.513c5.866.153 9.022-6.757 5.134-11.152z" fill="#ccf49f"/><path d="m441.554 126.06c-12.923-14.607-28.364-22.085-41.697-25.654-6.159 11.007-14.228 22.232-24.009 32.933-4.584 5.015-9.317 9.658-14.123 13.919l2.139 1.975c8.526 7.87 21.667 7.87 30.193 0l7.194-6.641c4.26-3.932 9.886-6.047 15.682-5.895l19.487.513c5.866.155 9.022-6.755 5.134-11.15z" fill="#b3e59f"/></g>
    </g>
</svg>
