<svg id="Capa_1" enable-background="new 0 0 497 497" height="140" viewBox="0 0 497 497" width="140" xmlns="http://www.w3.org/2000/svg">
    <g><path d="m294.5 0v405c111.838 0 202.5-90.662 202.5-202.5s-90.662-202.5-202.5-202.5z" fill="#ff5a35"/><path d="m467 202.5c0-111.838-77.231-202.5-172.5-202.5-111.838 0-202.5 90.662-202.5 202.5s90.662 202.5 202.5 202.5c95.269 0 172.5-90.662 172.5-202.5z" fill="#ff7a3c"/><circle cx="202.5" cy="294.5" fill="#ff9f45" r="202.5"/><circle cx="202.5" cy="294.5" fill="#ffe8c2" r="172.5"/><path d="m241.086 157.309c-12.792-3.615-25.764-5.343-38.585-5.338v118.332c5.65 0 11.3-3.087 13.857-9.26h34.598v-83.527c3.451-8.332-1.191-17.754-9.87-20.207z" fill="#ff5a35"/><path d="m202.229 151.967c.091 0 .181.004.272.004-.09 0-.181-.005-.272-.004z" fill="#ff9f45"/><path d="" fill="#ff9f45"/><path d="m217.749 157.309c-5.055-3.615-10.181-5.343-15.248-5.338-.091 0-.181-.004-.272-.004-13.081.03-26.003 1.869-38.414 5.378-8.638 2.443-13.203 11.887-9.768 20.18v83.518h34.594c2.557 6.173 8.208 9.26 13.859 9.26 2.233 0 4.466-3.087 5.477-9.26l13.673-83.527c1.364-8.332-.471-17.754-3.901-20.207z" fill="#ff7a3c"/><path d="m132.776 170.207c-11.602 6.489-21.996 14.439-31.059 23.509l83.673 83.674c3.995-3.996 5.808-10.173 3.251-16.346l-34.598-83.527c-3.45-8.333-13.396-11.712-21.267-7.31z" fill="#ff5a35"/><path d="m116.274 186.709c-6.131 1.018-10.978 3.421-14.557 7.007-.064.064-.131.125-.195.19-9.228 9.271-17.066 19.708-23.36 30.965-4.381 7.835-.93 17.741 7.363 21.177l59.056 59.056 24.462-24.462c6.173 2.557 12.352.744 16.347-3.252 1.579-1.58.975-5.341-2.675-10.42l-49.395-68.731c-4.926-6.856-12.886-12.221-17.046-11.53z" fill="#ff7a3c"/><path d="m65.309 255.914c-3.615 12.792-5.343 25.764-5.338 38.585h118.332c0-5.65-3.087-11.3-9.26-13.857l-83.527-34.598c-8.332-3.451-17.754 1.191-20.207 9.87z" fill="#ff5a35"/><path d="m65.309 279.251c-3.615 5.055-5.343 10.181-5.338 15.248 0 .091-.004.181-.004.272.03 13.081 1.869 26.003 5.378 38.414 2.443 8.638 11.887 13.203 20.18 9.768h83.518v-34.594c6.173-2.557 9.26-8.208 9.26-13.859 0-2.233-3.087-4.466-9.26-5.477l-83.527-13.673c-8.332-1.364-17.754.471-20.207 3.901z" fill="#ff7a3c"/><path d="m78.207 364.224c6.489 11.602 14.439 21.996 23.509 31.059l83.674-83.673c-3.996-3.995-10.173-5.808-16.346-3.251l-83.527 34.598c-8.333 3.45-11.712 13.396-7.31 21.267z" fill="#ff5a35"/><path d="m94.709 380.726c1.018 6.131 3.421 10.978 7.007 14.557.064.064.125.131.19.195 9.271 9.228 19.708 17.066 30.965 23.36 7.835 4.381 17.741.931 21.177-7.363l59.056-59.056-24.462-24.462c2.557-6.173.744-12.352-3.252-16.347-1.58-1.579-5.341-.975-10.42 2.675l-68.731 49.395c-6.856 4.926-12.221 12.886-11.53 17.046z" fill="#ff7a3c"/><path d="m163.914 431.691c12.792 3.615 25.764 5.343 38.585 5.338v-118.332c-5.65 0-11.3 3.087-13.857 9.26l-34.598 83.527c-3.451 8.332 1.191 17.754 9.87 20.207z" fill="#ff5a35"/><path d="m187.251 431.691c5.055 3.615 10.181 5.343 15.248 5.338.091 0 .181.004.272.004 13.081-.03 26.003-1.869 38.414-5.378 8.638-2.443 13.203-11.887 9.768-20.18v-83.518h-34.594c-2.557-6.173-8.208-9.26-13.859-9.26-2.233 0-4.466 3.087-5.477 9.26l-13.673 83.527c-1.364 8.332.471 17.754 3.901 20.207z" fill="#ff7a3c"/><path d="m272.224 418.793c11.602-6.489 21.996-14.439 31.059-23.509l-83.673-83.674c-3.995 3.996-5.808 10.173-3.251 16.346l34.598 83.527c3.45 8.333 13.396 11.712 21.267 7.31z" fill="#ff5a35"/><path d="m288.726 402.291c6.131-1.018 10.978-3.421 14.557-7.007.064-.064.131-.125.195-.19 9.228-9.271 17.066-19.708 23.36-30.965 4.381-7.835.931-17.741-7.363-21.177l-59.056-59.056-24.462 24.462c-6.173-2.557-12.352-.744-16.347 3.252-1.579 1.58-.975 5.341 2.675 10.42l49.395 68.731c4.926 6.856 12.886 12.221 17.046 11.53z" fill="#ff7a3c"/><path d="m339.691 333.086c3.615-12.792 5.343-25.764 5.338-38.585h-118.332c0 5.65 3.087 11.3 9.26 13.857l83.527 34.598c8.332 3.452 17.754-1.191 20.207-9.87z" fill="#ff5a35"/><path d="m339.691 309.749c3.615-5.055 5.343-10.181 5.338-15.248 0-.091.004-.181.004-.272-.03-13.081-1.869-26.003-5.378-38.414-2.443-8.638-11.887-13.203-20.18-9.768h-83.518v34.594c-6.173 2.557-9.26 8.208-9.26 13.859 0 2.233 3.087 4.466 9.26 5.477l83.527 13.673c8.332 1.364 17.754-.471 20.207-3.901z" fill="#ff7a3c"/><path d="m326.793 224.776c-6.489-11.602-14.439-21.996-23.509-31.059l-83.674 83.673c3.996 3.995 10.173 5.808 16.346 3.251l83.527-34.598c8.333-3.45 11.712-13.396 7.31-21.267z" fill="#ff5a35"/><path d="m310.291 208.274c-1.018-6.131-3.421-10.978-7.007-14.557-.064-.064-.125-.131-.19-.195-9.271-9.228-19.708-17.066-30.965-23.36-7.835-4.381-17.741-.93-21.177 7.363l-34.594 83.518c-2.557 6.173-.744 12.352 3.252 16.347 1.58 1.579 5.341.975 10.42-2.675l68.731-49.395c6.856-4.926 12.221-12.886 11.53-17.046z" fill="#ff7a3c"/></g>
</svg>
