<svg height="140" viewBox="0 0 512 512" width="140" xmlns="http://www.w3.org/2000/svg">
    <g id="Flat"><path d="m240 120h-16v-56h-8a24 24 0 1 1 24-24v8h16v16h-16zm-24-88a8 8 0 0 0 0 16h8v-8a8.009 8.009 0 0 0 -8-8z" fill="#117f40"/><path d="m432 288c0 101.02-74.89 184.55-172.19 198.08a202.365 202.365 0 0 1 -55.62 0c-97.3-13.53-172.19-97.06-172.19-198.08s74.89-184.55 172.19-198.08a202.365 202.365 0 0 1 55.62 0c97.3 13.53 172.19 97.06 172.19 198.08z" fill="#117f40"/><path d="m372 288c0-4.78 1.3-9.94 2.68-15.4 1.89-7.5 3.85-15.26 2.77-23.36-1.15-8.66-5.45-16.22-9.23-22.88-2.65-4.66-5.14-9.05-6.32-13.22-1.29-4.6-1.5-9.84-1.72-15.39-.31-7.87-.63-16-4.12-23.53-3.87-8.36-10.65-14.44-16.64-19.81-3.8-3.41-7.4-6.64-9.81-9.99-2.7-3.75-4.75-8.29-6.92-13.09-3.47-7.65-7.05-15.56-13.78-21.3-7.83-6.67-17.65-9.01-26.32-11.07a84.917 84.917 0 0 1 -12.06-3.46 93.858 93.858 0 0 1 -10.72-5.58 202.365 202.365 0 0 0 -55.62 0 93.858 93.858 0 0 1 -10.72 5.58 84.917 84.917 0 0 1 -12.06 3.46c-8.67 2.06-18.49 4.4-26.32 11.07-6.73 5.74-10.31 13.65-13.78 21.3-2.17 4.8-4.22 9.34-6.92 13.09-2.41 3.35-6.01 6.58-9.81 9.99-5.99 5.37-12.77 11.45-16.64 19.81-3.49 7.53-3.81 15.66-4.12 23.53-.22 5.55-.43 10.79-1.72 15.39-1.18 4.17-3.67 8.56-6.32 13.22-3.78 6.66-8.08 14.22-9.23 22.88-1.08 8.1.88 15.86 2.77 23.36 1.38 5.46 2.68 10.62 2.68 15.4s-1.3 9.94-2.68 15.4c-1.89 7.5-3.85 15.27-2.77 23.36 1.15 8.66 5.45 16.22 9.24 22.89 2.64 4.65 5.14 9.04 6.31 13.22 1.3 4.59 1.5 9.84 1.72 15.39.31 7.86.63 15.99 4.12 23.52 3.87 8.36 10.65 14.45 16.64 19.81 3.8 3.41 7.4 6.64 9.81 9.99 2.7 3.75 4.75 8.29 6.92 13.09 3.47 7.65 7.05 15.56 13.78 21.3 7.83 6.67 17.65 9.01 26.31 11.07a84.688 84.688 0 0 1 12.07 3.46 93.858 93.858 0 0 1 10.72 5.58 202.365 202.365 0 0 0 55.62 0 93.858 93.858 0 0 1 10.72-5.58 84.688 84.688 0 0 1 12.07-3.46c8.66-2.06 18.48-4.4 26.31-11.07 6.73-5.74 10.31-13.65 13.78-21.3 2.17-4.8 4.22-9.34 6.92-13.09 2.41-3.35 6.01-6.58 9.81-9.99 5.99-5.36 12.77-11.45 16.64-19.81 3.49-7.53 3.81-15.66 4.12-23.52.22-5.55.42-10.8 1.72-15.39 1.17-4.18 3.67-8.57 6.31-13.22 3.79-6.67 8.09-14.23 9.24-22.89 1.08-8.09-.88-15.86-2.77-23.36-1.38-5.46-2.68-10.62-2.68-15.4zm-172.49 177.69a98.141 98.141 0 0 0 -14.4-4.22c-7.58-1.8-14.74-3.5-19.64-7.68-4.01-3.41-6.72-9.39-9.58-15.71-2.4-5.31-4.88-10.8-8.51-15.84-3.43-4.76-7.85-8.73-12.12-12.56-5.3-4.76-10.31-9.25-12.81-14.63-2.14-4.62-2.38-10.84-2.64-17.42-.25-6.24-.5-12.69-2.31-19.1-1.7-6.05-4.8-11.51-7.8-16.79-3.37-5.92-6.55-11.52-7.29-17.09-.67-5.05.83-11.02 2.42-17.34 1.56-6.16 3.17-12.54 3.17-19.31s-1.61-13.15-3.17-19.31c-1.59-6.32-3.1-12.29-2.42-17.34.74-5.57 3.92-11.17 7.29-17.09 3-5.28 6.1-10.74 7.8-16.78 1.81-6.42 2.06-12.87 2.31-19.11.26-6.58.5-12.79 2.64-17.42 2.49-5.38 7.51-9.87 12.81-14.63 4.27-3.83 8.69-7.79 12.12-12.56 3.63-5.04 6.11-10.53 8.51-15.84 2.86-6.32 5.57-12.3 9.58-15.71 4.9-4.18 12.06-5.88 19.64-7.68a98.141 98.141 0 0 0 14.4-4.22c.1-.04.2-.09.31-.13-3.94 5.37-8.6 11.98-11.53 20.53-1.99 5.82-2.66 12.21-3.3 18.39a118.716 118.716 0 0 1 -1.93 13.49 94.69 94.69 0 0 1 -3.65 11.39c-2.06 5.62-4.4 12-5.44 18.97-.89 6.02-.63 12.11-.37 18a103.971 103.971 0 0 1 .01 14.01 95.141 95.141 0 0 1 -2.44 12.76c-1.39 5.87-2.83 11.94-3.12 18.53-.27 6.12.58 12.11 1.4 17.89a99.463 99.463 0 0 1 1.34 13.86 99.463 99.463 0 0 1 -1.34 13.86c-.82 5.78-1.67 11.77-1.4 17.9.29 6.58 1.73 12.65 3.12 18.52a95.141 95.141 0 0 1 2.44 12.76 103.824 103.824 0 0 1 -.01 14c-.26 5.9-.52 11.99.37 18 1.04 6.98 3.37 13.35 5.44 18.97a94.69 94.69 0 0 1 3.65 11.39 119.039 119.039 0 0 1 1.93 13.49c.64 6.18 1.31 12.57 3.3 18.39 2.93 8.56 7.59 15.17 11.53 20.54-.11-.04-.21-.09-.31-.13zm61.06-25.6c-2.32 6.79-6.24 12.12-10.03 17.28-1.69 2.3-3.29 4.48-4.74 6.76-3.52 5.55-10.09 15.87-13.8 15.87s-10.28-10.32-13.8-15.87c-1.45-2.28-3.05-4.46-4.74-6.76-3.79-5.16-7.71-10.49-10.03-17.28-1.41-4.09-1.95-9.32-2.53-14.86a130.084 130.084 0 0 0 -2.22-15.32 108.915 108.915 0 0 0 -4.25-13.4c-1.97-5.38-3.84-10.46-4.63-15.82-.67-4.5-.45-9.57-.21-14.94a116.64 116.64 0 0 0 -.05-16.18 108.035 108.035 0 0 0 -2.8-14.98c-1.28-5.38-2.48-10.47-2.7-15.54-.21-4.64.5-9.64 1.25-14.94a112.6 112.6 0 0 0 1.5-16.11 112.6 112.6 0 0 0 -1.5-16.11c-.75-5.3-1.46-10.3-1.25-14.94.22-5.07 1.42-10.16 2.7-15.54a108.035 108.035 0 0 0 2.8-14.98 116.64 116.64 0 0 0 .05-16.18c-.24-5.37-.46-10.45.21-14.94.8-5.36 2.66-10.44 4.63-15.82a106.856 106.856 0 0 0 4.25-13.41 132.3 132.3 0 0 0 2.23-15.32c.57-5.53 1.12-10.76 2.52-14.86 2.32-6.78 6.24-12.12 10.03-17.28 1.69-2.3 3.29-4.47 4.74-6.75 3.53-5.55 10.09-15.87 13.8-15.87s10.27 10.32 13.8 15.87c1.45 2.28 3.05 4.45 4.74 6.75 3.79 5.16 7.71 10.5 10.03 17.28 1.4 4.1 1.95 9.33 2.52 14.86a132.3 132.3 0 0 0 2.23 15.32 106.856 106.856 0 0 0 4.25 13.41c1.97 5.38 3.83 10.46 4.63 15.82.67 4.49.45 9.57.21 14.94a116.64 116.64 0 0 0 .05 16.18 108.035 108.035 0 0 0 2.8 14.98c1.28 5.38 2.48 10.47 2.7 15.54.21 4.64-.5 9.64-1.25 14.94a112.6 112.6 0 0 0 -1.5 16.11 112.6 112.6 0 0 0 1.5 16.11c.75 5.3 1.46 10.3 1.25 14.94-.22 5.07-1.42 10.16-2.7 15.54a108.035 108.035 0 0 0 -2.8 14.98 116.64 116.64 0 0 0 -.05 16.18c.24 5.37.46 10.44-.21 14.93-.79 5.37-2.66 10.45-4.63 15.83a108.915 108.915 0 0 0 -4.25 13.4 130.084 130.084 0 0 0 -2.22 15.32c-.58 5.54-1.12 10.77-2.53 14.86zm98.6-132.78c1.59 6.32 3.09 12.29 2.42 17.34-.74 5.57-3.92 11.17-7.29 17.09-3 5.28-6.1 10.74-7.8 16.79-1.81 6.41-2.06 12.86-2.31 19.1-.26 6.58-.5 12.8-2.64 17.42-2.5 5.38-7.51 9.87-12.81 14.63-4.27 3.83-8.69 7.8-12.12 12.56-3.63 5.04-6.11 10.53-8.51 15.84-2.86 6.32-5.57 12.3-9.58 15.71-4.9 4.18-12.06 5.88-19.64 7.68a98.141 98.141 0 0 0 -14.4 4.22c-.1.04-.2.09-.31.13 3.94-5.37 8.6-11.98 11.53-20.54 1.99-5.82 2.66-12.21 3.3-18.39a119.039 119.039 0 0 1 1.93-13.49 94.69 94.69 0 0 1 3.65-11.39c2.07-5.62 4.4-11.99 5.44-18.97.89-6.01.63-12.1.37-18a103.824 103.824 0 0 1 -.01-14 95.141 95.141 0 0 1 2.44-12.76c1.39-5.87 2.83-11.94 3.12-18.52.27-6.13-.58-12.12-1.4-17.9a99.463 99.463 0 0 1 -1.34-13.86 99.463 99.463 0 0 1 1.34-13.86c.82-5.78 1.67-11.77 1.4-17.89-.29-6.59-1.73-12.66-3.12-18.53a95.141 95.141 0 0 1 -2.44-12.76 103.971 103.971 0 0 1 .01-14.01c.26-5.89.52-11.98-.37-18-1.04-6.97-3.38-13.35-5.44-18.97a94.69 94.69 0 0 1 -3.65-11.39 118.716 118.716 0 0 1 -1.93-13.49c-.64-6.18-1.31-12.57-3.3-18.39-2.93-8.55-7.59-15.16-11.53-20.53.11.04.21.09.31.13a98.141 98.141 0 0 0 14.4 4.22c7.58 1.8 14.74 3.5 19.64 7.68 4.01 3.41 6.72 9.39 9.58 15.71 2.4 5.31 4.88 10.8 8.51 15.84 3.43 4.77 7.85 8.73 12.12 12.56 5.3 4.76 10.32 9.25 12.81 14.63 2.14 4.63 2.38 10.84 2.64 17.42.25 6.24.5 12.69 2.31 19.11 1.7 6.04 4.8 11.5 7.8 16.78 3.37 5.92 6.55 11.52 7.29 17.09.68 5.05-.83 11.02-2.42 17.34-1.56 6.16-3.17 12.54-3.17 19.31s1.61 13.15 3.17 19.31z" fill="#33a94a"/><path d="m480 328a160 160 0 0 1 -320 0z" fill="#85bb40"/><path d="m448 328a128 128 0 0 1 -256 0z" fill="#eb5849"/><g fill="#343433"><path d="m240 360h16v16h-16z"/><path d="m344 400h16v16h-16z"/><path d="m272 400h16v16h-16z"/><path d="m392 360h16v16h-16z"/><path d="m312 360h16v16h-16z"/></g>
    </g>
</svg>
